<?xml version="1.0" encoding="UTF-8" standalone="no"?>
<svg width="253px" height="48px" viewBox="0 0 253 48" version="1.1" xmlns="http://www.w3.org/2000/svg" xmlns:xlink="http://www.w3.org/1999/xlink">
    <!-- Generator: Sketch 39.1 (31720) - http://www.bohemiancoding.com/sketch -->
    <title>Group 3</title>
    <desc>Created with Sketch.</desc>
    <defs></defs>
    <g id="Page-1" stroke="none" stroke-width="1" fill="none" fill-rule="evenodd">
        <g id="Group-3">
            <text id="Laser-Kiwi" font-family="KingBasilLite-Regular, King Basil Lite" font-size="40" font-weight="normal" letter-spacing="0.319999993" fill="#31302E">
                <tspan x="55" y="40">Laser Kiwi</tspan>
            </text>
            <polygon id="Path-3" fill="#FFFFFF" transform="translate(65.967122, 9.907552) rotate(-5.000000) translate(-65.967122, -9.907552) " points="71.059082 11.0615234 69.6280924 14.8473307 61.0056966 11.3422852 60.8751628 6.61246745 63.0797526 4.96777344 67.0141602 7.6866862"></polygon>
            <path d="M37,13.25 L64,13.25" id="Line" stroke="#31302E" stroke-width="0.5" stroke-linecap="square"></path>
            <polygon id="Path-4" stroke="#31302E" stroke-width="0.5" stroke-linecap="square" fill="#31302E" points="56.011556 13.2117513 60.9859147 12.7023195 74.4192708 11.6757813 73.7055664 12.902181 69.6552734 13.3930664"></polygon>
            <path d="M3.7616386,16.5704482 C3.5886214,16.3429019 3.01709063,15.4052471 3.01709063,13.802993 C3.01709063,10.6841734 5.11584671,8.56737763 7.25191217,8.56737763 C8.26008588,8.56737763 8.76232776,8.74039483 8.96773444,8.7854941 C9.44988664,8.20207353 15.2697426,0.718874509 24.829968,0.718874509 C32.7821994,0.718874509 40.9988766,4.00169144 40.9988766,15.4446064 C40.9988766,21.6121367 37.1547788,25.7793094 34.5058116,26.7784632 C33.3598801,27.2110062 33.1938328,28.0199232 33.1930128,28.6656627 C33.1926028,29.3228821 33.2799314,30.8037781 33.4340889,31.9443797 C33.5107577,32.5081206 34.3865035,32.8451351 34.9486044,33.6421623 C35.5115253,34.4395994 35.8173804,34.9664409 35.9157788,35.7835576 C35.9924475,36.4108475 35.9157788,36.5805848 35.4643761,35.9869144 C35.0088734,35.388734 34.0761385,33.9123479 31.9835324,33.9123479 C31.8133851,33.9123479 31.384122,33.7832 30.8212011,34.3457109 C30.2582802,34.9082218 29.4608431,35.8446467 29.1799977,35.9405851 C28.7946039,36.070963 27.9598574,36.8315007 27.6326827,37.3472724 C27.304278,37.863044 27.116501,38.1557793 27.116501,37.4879001 C27.116501,36.8298607 27.1435606,36.3263889 27.9135282,35.330515 C28.6888256,34.3284912 29.1775377,33.7454806 29.3202154,33.595423 C28.1029451,33.967697 27.1685702,33.9238277 25.6626645,34.8151533 C25.136643,35.1263383 25.0206149,35.0291698 25.4588978,34.4322195 C25.9496599,33.7631103 26.435502,33.3391772 27.6318627,32.8451351 C28.7593445,32.3802027 30.2898497,32.1920157 30.646134,32.1370766 C30.9765886,32.0862374 31.3320529,31.6627143 31.4152815,30.8591273 C31.4780105,30.2527471 31.6276581,28.340948 31.3373828,27.6390393 C31.1549358,27.1978864 29.9216757,26.9879698 28.8048537,24.5903286 C28.3222915,24.8875738 27.2333491,25.3340566 26.2981543,25.5763627 C25.8639713,25.6878809 25.760243,27.1482772 25.7094038,28.2015502 C25.6581546,29.2794228 25.8504415,30.8279678 25.8971807,31.2498509 C25.94392,31.6721441 26.0341185,31.9099403 25.5417165,32.1469164 C24.212518,32.7877361 24.2813969,33.1948595 23.4827298,34.0025464 C22.8111606,34.6819055 22.5754144,35.2083369 22.4659462,35.4731927 C22.2896491,35.8983558 22.1937106,35.6531798 22.1982205,35.266556 C22.2051904,34.6183565 22.3044088,33.78115 22.668073,33.1190107 C21.8111868,33.4904647 20.7939932,33.9283376 20.0904446,34.1161146 C19.386896,34.3038916 18.5857689,34.1825335 17.7116631,34.4949485 C16.9831049,34.7552943 16.9552253,34.8241732 16.5800814,34.9648009 C16.2049374,35.1050186 16.3795946,34.7909637 16.8342773,34.3547307 C17.2418107,33.9627771 18.7112269,33.223149 19.508254,32.9890428 C20.3052811,32.7545266 21.2736855,32.2034955 21.4499826,32.0997672 C21.1912768,31.7980121 20.4008096,31.6327847 19.696031,31.6327847 C19.2811177,31.6327847 18.8256151,31.6754241 18.4033219,31.7229833 C18.0441677,31.7627526 17.9933285,31.6360647 18.584539,31.245341 C19.2245386,30.8230478 20.5586571,30.8328877 21.2154664,30.8328877 C21.8722758,30.8328877 22.539745,30.872657 23.0186173,30.872657 C23.3831014,30.872657 23.7475855,30.5335925 23.8828833,29.6434969 C23.9939915,28.9145287 24.1383092,26.9359007 24.1415891,25.9486366 C23.3359522,25.4164652 20.9645505,24.4546208 20.9645505,20.113201 C19.8977477,18.0251047 18.5312398,17.6454509 17.1118428,17.6454509 C15.0151367,17.6454509 14.1377509,19.4059624 9.51507559,17.8881669 C8.63153987,17.5978916 7.75620402,17.7536891 6.57173317,18.7614528 C4.68371369,20.3686268 2.32338185,24.2287144 1.38695699,27.6209996 C0.829775996,29.638167 0.536220741,31.6471345 0.278744904,31.6471345 C-0.0972190182,31.6471345 -0.0230102178,29.9518119 0.099167807,29.078526 C0.753517229,24.4062416 2.36233122,19.5929194 3.7616386,16.5704482 L3.7616386,16.5704482 Z" id="Shape" fill="#31302E" transform="translate(20.499438, 19.297341) scale(-1, 1) translate(-20.499438, -19.297341) "></path>
        </g>
    </g>
</svg>